<mxfile host="app.diagrams.net" agent="Mozilla/5.0 (Windows NT 10.0; Win64; x64) AppleWebKit/537.36 (KHTML, like Gecko) Chrome/139.0.0.0 Safari/537.36 Edg/139.0.0.0" version="28.1.0">
  <diagram name="Page-1" id="JW0FuUn3D1_XrUhUxljx">
    <mxGraphModel dx="738" dy="460" grid="1" gridSize="10" guides="1" tooltips="1" connect="1" arrows="1" fold="1" page="1" pageScale="1" pageWidth="850" pageHeight="1100" math="0" shadow="0">
      <root>
        <mxCell id="0" />
        <mxCell id="1" parent="0" />
        <mxCell id="KNeuuVTq-CaXWoX5m_rE-1" value="Actor" style="shape=umlActor;verticalLabelPosition=bottom;verticalAlign=top;html=1;outlineConnect=0;" vertex="1" parent="1">
          <mxGeometry x="30" y="20" width="130" height="140" as="geometry" />
        </mxCell>
        <mxCell id="KNeuuVTq-CaXWoX5m_rE-2" value="Lekan&#39;s Code" style="ellipse;whiteSpace=wrap;html=1;" vertex="1" parent="1">
          <mxGeometry x="370" y="50" width="120" height="80" as="geometry" />
        </mxCell>
        <mxCell id="KNeuuVTq-CaXWoX5m_rE-3" value="Lekan&#39;s computer [Git]" style="shape=parallelogram;perimeter=parallelogramPerimeter;whiteSpace=wrap;html=1;fixedSize=1;" vertex="1" parent="1">
          <mxGeometry x="330" y="120" width="200" height="60" as="geometry" />
        </mxCell>
        <mxCell id="KNeuuVTq-CaXWoX5m_rE-4" value="Bankole" style="shape=umlActor;verticalLabelPosition=bottom;verticalAlign=top;html=1;outlineConnect=0;" vertex="1" parent="1">
          <mxGeometry x="550" y="310" width="70" height="110" as="geometry" />
        </mxCell>
        <mxCell id="KNeuuVTq-CaXWoX5m_rE-5" value="Lilian" style="shape=umlActor;verticalLabelPosition=bottom;verticalAlign=top;html=1;outlineConnect=0;" vertex="1" parent="1">
          <mxGeometry x="50" y="300" width="70" height="110" as="geometry" />
        </mxCell>
        <mxCell id="KNeuuVTq-CaXWoX5m_rE-7" value="Temi" style="shape=umlActor;verticalLabelPosition=bottom;verticalAlign=top;html=1;outlineConnect=0;" vertex="1" parent="1">
          <mxGeometry x="620" y="90" width="100" height="110" as="geometry" />
        </mxCell>
        <mxCell id="KNeuuVTq-CaXWoX5m_rE-8" value="Github" style="shape=or;whiteSpace=wrap;html=1;" vertex="1" parent="1">
          <mxGeometry x="350" y="220" width="60" height="80" as="geometry" />
        </mxCell>
        <mxCell id="KNeuuVTq-CaXWoX5m_rE-9" value="Lilian&#39;s Code v2" style="ellipse;whiteSpace=wrap;html=1;" vertex="1" parent="1">
          <mxGeometry x="120" y="340" width="120" height="80" as="geometry" />
        </mxCell>
        <mxCell id="KNeuuVTq-CaXWoX5m_rE-10" value="Bankole&#39;s doc" style="ellipse;whiteSpace=wrap;html=1;" vertex="1" parent="1">
          <mxGeometry x="430" y="370" width="120" height="80" as="geometry" />
        </mxCell>
      </root>
    </mxGraphModel>
  </diagram>
</mxfile>
